<?xml version="1.0" encoding="utf-8"?>
<!-- Generator: Adobe Illustrator 23.0.2, SVG Export Plug-In . SVG Version: 6.00 Build 0)  -->
<svg version="1.1" id="Layer_1" xmlns="http://www.w3.org/2000/svg" xmlns:xlink="http://www.w3.org/1999/xlink" x="0px" y="0px"
	 viewBox="0 0 340 208" style="enable-background:new 0 0 340 208;" xml:space="preserve">
<style type="text/css">
	.st0{fill:#F79923;}
	.st1{fill:#EC2031;}
	.st2{fill:#06549C;}
	.st3{fill:#0AACD4;}
</style>
<path class="st0" d="M37.3,104.8c4.1-0.1,8.1,0.5,12.2,0.2C62,104,71.2,94.2,74,83.2c0.8-3.1,0.6-6.2,1-9.3
	c1.4-10.8,9.8-19.2,20.5-20.5c13.3-1.7,25.1,8,26.5,20.7c1.6,14-9,26.6-23.8,26.5c-7.9,0-15.5,0.7-22.9,3.6
	c-6.9,2.8-12.7,7.2-17.5,12.9c-2.3,2.8-3.2,6.2-4.4,9.4c-0.3-1.5-0.6-3-1-4.4C50.2,113.9,44.9,108.4,37.3,104.8z"/>
<path class="st1" d="M169.8,100.8c-3.3,0.4-6.6-0.2-9.9-0.1c-16.8,0.5-26.5,15.5-26.6,28.4c-0.2,15.7-15.2,26.9-30.1,22.6
	c-11.7-3.4-19-14.6-17.1-26.5c2-12.2,12.2-20.8,24.5-20c8,0.5,15.4-1.3,22.7-4.1c6-2.3,11.1-6.2,15.5-10.9c3.1-3.4,5-7.3,5.7-11.9
	c0.1,0.1,0.2,0.2,0.4,0.3c-0.1,4.8,1.7,9,4.3,13C161.9,95.7,165.8,98.3,169.8,100.8z"/>
<path class="st2" d="M37.3,104.8c7.5,3.6,12.9,9.1,15.1,17.3c0.4,1.5,0.7,2.9,1,4.4c0,1.6,0,3.3,0,4.9c-1.2,7.8-4.6,14.4-11.2,18.9
	c-1.5,1.1-3.2,1.9-4.9,2.9c-6.9,2.1-13.7,2.4-20.5-0.5c-10-4.4-16.4-15.4-15.2-26.5c1.2-11.1,9.6-20.3,20.3-22.6
	C27.2,102.5,32.3,103.2,37.3,104.8z"/>
<path class="st2" d="M169.8,100.8c-4-2.5-7.9-5.1-10.6-9.2c-2.6-4-4.4-8.1-4.3-13c-0.1-0.2-0.1-0.4-0.2-0.5c0-1-0.1-2-0.1-3.1
	c0.1-0.3,0.3-0.5,0.3-0.8c0.6-7.5,4-13.4,9.9-18c1.6-1.3,3.8-1.7,5.1-3.4c5.8-1.8,11.7-2.7,17.7-1c11.5,3.3,19.2,13.2,19,25.4
	c-0.2,12.7-9,22.7-20.9,25.1c-4.9,0.9-9.6,0.3-14.3-1.1C170.9,100.8,170.3,100.7,169.8,100.8L169.8,100.8z"/>
<path class="st2" d="M113.8,48.3c-6.9,0.7-13.4-0.4-19.1-4.9c-8.6-6.8-11.4-18.8-6.7-28.8c4.7-10,15.7-15.4,26.7-13
	c10.6,2.3,18.3,11.9,18.4,22.7c0,1.1,0,2.3,0,3.4c-0.3,0.6-0.4,1.2-0.6,1.9c-1.2,5.3-3.8,9.8-8,13.4
	C121.5,45.8,117.6,46.9,113.8,48.3z"/>
<path class="st2" d="M92.2,157.8c4.6-0.6,9.3-1,13.8,0.7c9.2,3.4,14.6,9.9,16,19.6c1.5,10.8-4.9,19.8-11.7,23.5
	c-8.8,4.8-19.4,4-26.9-2.4c-6.2-5.3-9-12.1-8.4-20.2c0.7-6.7,3.5-12.2,8.7-16.5C86.2,160.4,89.3,159.2,92.2,157.8z"/>
<path class="st2" d="M322.4,170.5c-8.2,0-16.4,0-24.7,0c-1.3,2.8-2.6,5.5-3.8,8.3c-0.7,1.7-1.8,2.5-3.7,2.4c-1.8-0.1-3.6,0-5.4,0
	c-2.7,0-3.3-0.8-2.1-3.3c2-4.5,4.1-9,6.2-13.4c6.2-13.4,12.4-26.9,18.7-40.3c0.5-1.2,0.8-2.6,2.6-2.6c1.8,0,2.2,1.2,2.7,2.4
	c8.2,17.9,16.3,35.7,24.5,53.6c1.3,2.9,0.9,3.6-2.2,3.6c-0.8,0-1.5-0.1-2.3,0c-4.4,0.9-6.7-1.2-7.9-5.2
	C324.3,174.1,323.3,172.3,322.4,170.5z M302,160.6c5.5,0,10.6,0,16.1,0c-2.7-6.1-5.3-11.8-8.1-17.9
	C307.2,148.9,304.6,154.7,302,160.6z"/>
<path class="st2" d="M182.1,170.4c-8.3,0-16.5,0-24.7,0c-1.3,2.8-2.6,5.5-3.8,8.3c-0.7,1.7-1.8,2.5-3.7,2.4c-1.7-0.1-3.4,0-5.1,0
	c-3.2,0-3.6-0.7-2.3-3.5c3.2-7,6.4-14,9.7-20.9c5.1-10.9,10.1-21.9,15.2-32.8c0.5-1.2,1-2.3,2.5-2.3c1.6,0,2,1.1,2.5,2.2
	c8.2,18,16.5,36,24.8,54.1c1.1,2.5,0.6,3.3-2.1,3.3c-9.6-0.2-7.2,1.5-11.2-7C183.2,172.9,182.7,171.8,182.1,170.4z M177.8,160.7
	c-2.8-6.2-5.4-11.9-8.2-18c-2.8,6.2-5.3,12-8,18C167.1,160.7,172.2,160.7,177.8,160.7z"/>
<path class="st2" d="M212.5,205.8c-3.3,0.9-6.2,0.5-9,0.4c-0.9,0-1.5-0.8-1.6-1.8c-0.1-0.7,0-1.3,0-2c0-17,0-34,0-51.1
	c0-3.6,2.2-5.1,5.5-3.8c1.4,0.5,1.3,2,2.2,3.1c3.9-3,8.1-4.7,13.2-3.9c3.6,0.6,6.6,2.3,9.1,5c5.4,5.7,6.2,15.1,2,22.3
	c-4.1,7-11,9.1-21.3,6.6C212.5,189,212.5,197.3,212.5,205.8z M212,170.5c0.8,0.9,1.6,1.2,2.4,1.5c3.9,1.4,7.7,0.6,9.9-2
	c2.4-2.8,2.8-7.1,0.9-10.4c-1.7-3-5-4.4-8.2-3.6c-2.5,0.6-5.4,3.5-5.1,7C212.2,165.6,212,168,212,170.5z"/>
<path class="st2" d="M253.7,180.9c-2.7,0.4-5.7,0.3-8.7,0.1c-0.8-0.1-1.3-0.8-1.3-1.6c0-0.7,0-1.3,0-2c0-16.9,0-33.8,0-50.8
	c0-0.6,0-1.1,0-1.7c0-1.6,0.7-2.5,2.4-2.4c1.9,0.1,3.8,0.1,5.7,0c1.9-0.1,2.5,0.8,2.4,2.6c-0.1,6.9,0,13.9,0,20.8c0,0.9,0,1.9,0,2.7
	c0.8,0.4,1.2-0.1,1.7-0.3c10.7-4.8,20.8,0.9,22,12.5c0.6,6,0.2,12,0.2,18c0,1.6-0.7,2.5-2.4,2.4c-1.7-0.1-3.4-0.1-5.1,0
	c-2,0.1-2.7-0.7-2.7-2.7c0.1-4.7,0-9.3,0-14c0-0.7,0-1.3,0-2c-0.3-4.1-3-6.7-6.7-6.6c-3.7,0.1-6.8,3.2-6.9,7c-0.1,5.3,0,10.6,0,16
	C254.2,179.4,254.3,180,253.7,180.9z"/>
<path class="st3" d="M113.8,48.3c3.8-1.4,7.7-2.5,10.9-5.2c4.2-3.6,6.7-8.1,8-13.4c0.2-0.6,0.3-1.3,0.6-1.9c1,3.3,1.7,6.8,3.3,9.9
	c5.2,9.8,13.3,15.1,24.5,15.3c2.9,0.1,5.9-0.1,8.8-0.1c-1.3,1.7-3.5,2.1-5.1,3.4c-5.8,4.7-9.3,10.5-9.9,18c0,0.3-0.2,0.5-0.3,0.8
	c-2-10-9-15.9-17.3-20.8C130.1,50.1,122,49,113.8,48.3z"/>
<path class="st3" d="M92.2,157.8c-3,1.4-6,2.5-8.6,4.7c-5.2,4.3-8,9.8-8.7,16.5c-0.9-4.8-2.2-9.4-4.8-13.5
	c-5.4-8.5-13.4-12.5-23.3-12.9c-3.1-0.1-6.2,0.5-9.3,0.5c1.6-0.9,3.3-1.8,4.9-2.9c6.6-4.6,10-11.1,11.2-18.9
	c4.7,14.6,16.2,21,29.9,24.6C86.3,156.8,89.3,157.2,92.2,157.8z"/>
<path class="st1" d="M169.7,100.8c0.6,0,1.1,0,1.5,0.5C170.7,101.1,170,101.6,169.7,100.8z"/>
<path class="st3" d="M154.7,78.1c0.1,0.2,0.1,0.4,0.2,0.5c-0.1-0.1-0.3-0.2-0.4-0.3C154.5,78.2,154.6,78.2,154.7,78.1z"/>
</svg>
